<svg width="0" height="0" class="hidden">
  <symbol xmlns="http://www.w3.org/2000/svg" viewBox="0 0 24 24" id="account">
    <path d="M0 0h24v24H0z" fill="none"></path>
    <path d="M12 2C6.48 2 2 6.48 2 12s4.48 10 10 10 10-4.48 10-10S17.52 2 12 2zm0 3c1.66 0 3 1.34 3 3s-1.34 3-3 3-3-1.34-3-3 1.34-3 3-3zm0 14.2a7.2 7.2 0 01-6-3.22c.03-1.99 4-3.08 6-3.08 1.99 0 5.97 1.09 6 3.08a7.2 7.2 0 01-6 3.22z"></path>
  </symbol>
  <symbol xmlns="http://www.w3.org/2000/svg" viewBox="0 0 24 24" id="arrow right">
    <path d="M0 0h24v24H0z" fill="none"></path>
    <path d="M16.01 11H4v2h12.01v3L20 12l-3.99-4z"></path>
  </symbol>
  <symbol xmlns="http://www.w3.org/2000/svg" viewBox="0 0 56.693 56.693" id="google">
    <path d="M51.981 24.481c-7.717-.004-15.435-.002-23.152 0 .001 3.2-.004 6.401.002 9.6h13.407c-.518 3.068-2.34 5.873-4.926 7.6-1.625 1.093-3.492 1.802-5.416 2.139-1.938.33-3.94.373-5.872-.018a14.452 14.452 0 01-5.477-2.365 15.287 15.287 0 01-5.639-7.555c-1.048-3.079-1.056-6.505.005-9.58a15.266 15.266 0 013.57-5.8c1.986-2.033 4.567-3.486 7.348-4.082a14.57 14.57 0 017.223.294 13.333 13.333 0 015.305 3.116c1.512-1.503 3.017-3.016 4.527-4.523.792-.81 1.624-1.586 2.39-2.42-2.292-2.121-4.98-3.827-7.917-4.905-5.287-1.946-11.25-1.987-16.572-.145C14.79 7.891 9.682 12.377 6.85 18.046a24.477 24.477 0 00-2.138 6.184c-1.088 5.343-.33 11.04 2.135 15.908a24.788 24.788 0 006.684 8.215 24.487 24.487 0 008.94 4.508c4.098 1.099 8.46 1.074 12.586.135 3.728-.858 7.256-2.64 10.073-5.24 2.977-2.736 5.1-6.34 6.224-10.214 1.227-4.225 1.396-8.736.627-13.06z"></path>
  </symbol>
  <symbol xmlns="http://www.w3.org/2000/svg" viewBox="0 0 56.7 56.7" id="instagram">
    <path d="M28.2 16.7c-7 0-12.8 5.7-12.8 12.8s5.7 12.8 12.8 12.8S41 36.5 41 29.5s-5.8-12.8-12.8-12.8zm0 21c-4.5 0-8.2-3.7-8.2-8.2s3.7-8.2 8.2-8.2 8.2 3.7 8.2 8.2-3.7 8.2-8.2 8.2z"></path>
    <circle cx="41.5" cy="16.4" r="2.9"></circle>
    <path d="M49 8.9c-2.6-2.7-6.3-4.1-10.5-4.1H17.9c-8.7 0-14.5 5.8-14.5 14.5v20.5c0 4.3 1.4 8 4.2 10.7 2.7 2.6 6.3 3.9 10.4 3.9h20.4c4.3 0 7.9-1.4 10.5-3.9 2.7-2.6 4.1-6.3 4.1-10.6V19.3c0-4.2-1.4-7.8-4-10.4zm-.4 31c0 3.1-1.1 5.6-2.9 7.3s-4.3 2.6-7.3 2.6H18c-3 0-5.5-.9-7.3-2.6C8.9 45.4 8 42.9 8 39.8V19.3c0-3 .9-5.5 2.7-7.3 1.7-1.7 4.3-2.6 7.3-2.6h20.6c3 0 5.5.9 7.3 2.7 1.7 1.8 2.7 4.3 2.7 7.2v20.6z"></path>
  </symbol>
  <symbol xmlns="http://www.w3.org/2000/svg" viewBox="0 0 24 24" id="menu">
    <path d="M0 0h24v24H0V0z" fill="none"></path>
    <path d="M3 18h18v-2H3v2zm0-5h18v-2H3v2zm0-7v2h18V6H3z"></path>
  </symbol>
  <symbol xmlns="http://www.w3.org/2000/svg" viewBox="0 0 56.693 56.693" id="twitter">
    <path d="M52.837 15.065a20.11 20.11 0 01-5.805 1.591 10.125 10.125 0 004.444-5.592 20.232 20.232 0 01-6.418 2.454 10.093 10.093 0 00-7.377-3.192c-5.581 0-10.106 4.525-10.106 10.107 0 .791.089 1.562.262 2.303-8.4-.422-15.848-4.445-20.833-10.56a10.055 10.055 0 00-1.368 5.082c0 3.506 1.784 6.6 4.496 8.412a10.078 10.078 0 01-4.578-1.265l-.001.128c0 4.896 3.484 8.98 8.108 9.91a10.162 10.162 0 01-4.565.172c1.287 4.015 5.019 6.938 9.441 7.019a20.276 20.276 0 01-12.552 4.327c-.815 0-1.62-.048-2.411-.142a28.6 28.6 0 0015.493 4.541c18.591 0 28.756-15.4 28.756-28.756 0-.438-.009-.875-.028-1.309a20.47 20.47 0 005.042-5.23z"></path>
  </symbol>
  <symbol xmlns="http://www.w3.org/2000/svg" viewBox="0 0 512 512" id="facebook">
    <path d="M481 258.1c0-124.3-100.8-225-225-225-124.3 0-225 100.7-225 225 0 112.3 82.3 205.4 189.8 222.2V323.1h-57.1v-65h57.1v-49.6c0-56.4 33.5-87.5 85-87.5 24.6 0 50.4 4.4 50.4 4.4v55.4h-28.4c-27.9 0-36.6 17.4-36.6 35.2v42.2h62.4l-10 65h-52.4v157.2C398.7 463.4 481 370.3 481 258.1z"></path>
  </symbol>
</svg>